<mxfile host="app.diagrams.net" modified="2022-09-30T15:54:23.756Z" agent="5.0 (Windows NT 10.0; Win64; x64) AppleWebKit/537.36 (KHTML, like Gecko) Chrome/105.0.0.0 Safari/537.36" etag="DRnL_F83KCEf20rnF2rb" version="20.4.0" type="github">
  <diagram id="R2lEEEUBdFMjLlhIrx00" name="Page-1">
    <mxGraphModel dx="1026" dy="1297" grid="1" gridSize="10" guides="1" tooltips="1" connect="1" arrows="1" fold="1" page="0" pageScale="1" pageWidth="850" pageHeight="1100" math="0" shadow="0" extFonts="Permanent Marker^https://fonts.googleapis.com/css?family=Permanent+Marker">
      <root>
        <mxCell id="0" />
        <mxCell id="1" parent="0" />
        <mxCell id="qLwgue1h8SCXyNeNyjKR-14" value="Vonat" style="whiteSpace=wrap;html=1;align=center;" vertex="1" parent="1">
          <mxGeometry x="330" y="-400" width="100" height="40" as="geometry" />
        </mxCell>
        <mxCell id="qLwgue1h8SCXyNeNyjKR-15" value="Járat" style="whiteSpace=wrap;html=1;align=center;" vertex="1" parent="1">
          <mxGeometry x="340" y="-330" width="100" height="40" as="geometry" />
        </mxCell>
        <mxCell id="qLwgue1h8SCXyNeNyjKR-16" value="MÁV" style="whiteSpace=wrap;html=1;align=center;" vertex="1" parent="1">
          <mxGeometry x="70" y="-500" width="100" height="40" as="geometry" />
        </mxCell>
        <mxCell id="qLwgue1h8SCXyNeNyjKR-17" value="Kocsi" style="whiteSpace=wrap;html=1;align=center;" vertex="1" parent="1">
          <mxGeometry x="330" y="-210" width="100" height="40" as="geometry" />
        </mxCell>
        <mxCell id="qLwgue1h8SCXyNeNyjKR-18" value="Foglalás" style="whiteSpace=wrap;html=1;align=center;" vertex="1" parent="1">
          <mxGeometry x="320" y="-150" width="100" height="40" as="geometry" />
        </mxCell>
        <mxCell id="qLwgue1h8SCXyNeNyjKR-20" value="indulóÁ" style="ellipse;whiteSpace=wrap;html=1;align=center;" vertex="1" parent="1">
          <mxGeometry x="-220" y="-460" width="100" height="40" as="geometry" />
        </mxCell>
        <mxCell id="qLwgue1h8SCXyNeNyjKR-21" value="érkezőÁ" style="ellipse;whiteSpace=wrap;html=1;align=center;" vertex="1" parent="1">
          <mxGeometry x="-90" y="-460" width="100" height="40" as="geometry" />
        </mxCell>
        <mxCell id="qLwgue1h8SCXyNeNyjKR-22" value="név" style="ellipse;whiteSpace=wrap;html=1;align=center;" vertex="1" parent="1">
          <mxGeometry x="-230" y="-390" width="100" height="40" as="geometry" />
        </mxCell>
        <mxCell id="qLwgue1h8SCXyNeNyjKR-23" value="maxHely" style="ellipse;whiteSpace=wrap;html=1;align=center;" vertex="1" parent="1">
          <mxGeometry x="-130" y="-400" width="100" height="40" as="geometry" />
        </mxCell>
        <mxCell id="qLwgue1h8SCXyNeNyjKR-24" value="mID" style="ellipse;whiteSpace=wrap;html=1;align=center;fontStyle=4;" vertex="1" parent="1">
          <mxGeometry x="-250" y="-310" width="100" height="40" as="geometry" />
        </mxCell>
        <mxCell id="qLwgue1h8SCXyNeNyjKR-25" value="jID" style="ellipse;whiteSpace=wrap;html=1;align=center;fontStyle=4;" vertex="1" parent="1">
          <mxGeometry x="-110" y="-320" width="100" height="40" as="geometry" />
        </mxCell>
        <mxCell id="qLwgue1h8SCXyNeNyjKR-26" value="szám" style="ellipse;whiteSpace=wrap;html=1;align=center;fontStyle=4;" vertex="1" parent="1">
          <mxGeometry x="-240" y="-240" width="100" height="30" as="geometry" />
        </mxCell>
        <mxCell id="qLwgue1h8SCXyNeNyjKR-27" value="vID" style="ellipse;whiteSpace=wrap;html=1;align=center;fontStyle=4;" vertex="1" parent="1">
          <mxGeometry x="-100" y="-245" width="100" height="40" as="geometry" />
        </mxCell>
        <mxCell id="qLwgue1h8SCXyNeNyjKR-28" value="M-V" style="shape=rhombus;perimeter=rhombusPerimeter;whiteSpace=wrap;html=1;align=center;" vertex="1" parent="1">
          <mxGeometry x="-250" y="-170" width="120" height="60" as="geometry" />
        </mxCell>
        <mxCell id="qLwgue1h8SCXyNeNyjKR-29" value="M-J" style="shape=rhombus;perimeter=rhombusPerimeter;whiteSpace=wrap;html=1;align=center;" vertex="1" parent="1">
          <mxGeometry x="-240" y="-70" width="120" height="60" as="geometry" />
        </mxCell>
        <mxCell id="qLwgue1h8SCXyNeNyjKR-30" value="J-V" style="shape=rhombus;perimeter=rhombusPerimeter;whiteSpace=wrap;html=1;align=center;" vertex="1" parent="1">
          <mxGeometry x="-30" y="-160" width="120" height="60" as="geometry" />
        </mxCell>
        <mxCell id="qLwgue1h8SCXyNeNyjKR-31" value="V-K" style="shape=rhombus;perimeter=rhombusPerimeter;whiteSpace=wrap;html=1;align=center;" vertex="1" parent="1">
          <mxGeometry x="-260" y="30" width="120" height="60" as="geometry" />
        </mxCell>
        <mxCell id="qLwgue1h8SCXyNeNyjKR-32" value="J-F" style="shape=rhombus;perimeter=rhombusPerimeter;whiteSpace=wrap;html=1;align=center;" vertex="1" parent="1">
          <mxGeometry x="-40" y="-80" width="120" height="60" as="geometry" />
        </mxCell>
        <mxCell id="qLwgue1h8SCXyNeNyjKR-33" value="F-K" style="shape=rhombus;perimeter=rhombusPerimeter;whiteSpace=wrap;html=1;align=center;fillColor=#dae8fc;strokeColor=#6c8ebf;" vertex="1" parent="1">
          <mxGeometry x="-90" y="40" width="120" height="60" as="geometry" />
        </mxCell>
        <mxCell id="qLwgue1h8SCXyNeNyjKR-34" value="indulás" style="ellipse;shape=doubleEllipse;margin=3;whiteSpace=wrap;html=1;align=center;" vertex="1" parent="1">
          <mxGeometry x="-270" y="-580" width="100" height="40" as="geometry" />
        </mxCell>
        <mxCell id="qLwgue1h8SCXyNeNyjKR-35" value="érkezés" style="ellipse;shape=doubleEllipse;margin=3;whiteSpace=wrap;html=1;align=center;" vertex="1" parent="1">
          <mxGeometry x="-150" y="-590" width="100" height="40" as="geometry" />
        </mxCell>
        <mxCell id="qLwgue1h8SCXyNeNyjKR-36" value="állomások" style="ellipse;shape=doubleEllipse;margin=3;whiteSpace=wrap;html=1;align=center;" vertex="1" parent="1">
          <mxGeometry x="10" y="-410" width="100" height="40" as="geometry" />
        </mxCell>
      </root>
    </mxGraphModel>
  </diagram>
</mxfile>
